<svg width="695" height="597" viewBox="0 0 695 597" fill="none" xmlns="http://www.w3.org/2000/svg">
<g clip-path="url(#clip0_107_278)" filter="url(#filter0_i_107_278)">
<path d="M561.175 597C635.084 597 695 584.615 695 569.336C695 554.058 635.084 541.673 561.175 541.673C487.265 541.673 427.349 554.058 427.349 569.336C427.349 584.615 487.265 597 561.175 597Z" fill="#F2F2F2"/>
<path d="M40.9267 348.052C41.7243 349.911 42.5684 351.79 43.4349 353.636L41.5779 354.508C40.7016 352.641 39.8486 350.741 39.0417 348.861L40.9267 348.052Z" fill="#E6E6E6"/>
<path d="M372.124 199.335C373.295 201.832 374.42 204.376 375.469 206.898L373.574 207.685C372.005 203.91 370.27 200.105 368.439 196.425L370.276 195.511C370.904 196.775 371.52 198.049 372.124 199.335ZM364.327 184.501L362.557 185.538C360.478 181.985 358.254 178.467 355.947 175.079L357.643 173.924C359.975 177.35 362.225 180.908 364.327 184.501ZM379.88 218.606C381.214 222.549 382.425 226.581 383.481 230.591L381.498 231.113C380.453 227.149 379.256 223.163 377.936 219.265L379.88 218.606ZM350.249 163.83L348.636 165.099C346.096 161.871 343.411 158.69 340.655 155.645L342.175 154.268C344.963 157.348 347.68 160.565 350.249 163.83ZM386.249 242.796C387.028 246.875 387.674 251.036 388.17 255.163L386.134 255.408C385.643 251.327 385.004 247.213 384.234 243.179L386.249 242.796ZM333.461 145.287L332.039 146.767C329.08 143.921 325.985 141.142 322.842 138.511L324.16 136.938C327.338 139.6 330.467 142.408 333.461 145.287ZM389.234 267.651C389.444 271.811 389.51 276.026 389.432 280.18L387.381 280.142C387.458 276.036 387.392 271.868 387.185 267.755L389.234 267.651ZM314.305 129.246L313.098 130.905C309.775 128.492 306.328 126.163 302.852 123.985L303.941 122.246C307.456 124.449 310.943 126.804 314.305 129.246ZM388.769 292.689C388.406 296.836 387.895 301.018 387.25 305.12L385.223 304.801C385.861 300.745 386.367 296.61 386.726 292.509L388.769 292.689ZM293.122 115.971L292.154 117.78C288.532 115.841 284.798 114.003 281.055 112.318L281.897 110.446C285.683 112.151 289.46 114.01 293.122 115.971ZM384.884 317.416C383.96 321.466 382.884 325.538 381.686 329.52L379.722 328.928C380.906 324.991 381.97 320.965 382.884 316.96L384.884 317.416ZM270.32 105.699L269.607 107.623C265.755 106.195 261.804 104.881 257.864 103.718L258.445 101.75C262.43 102.926 266.424 104.255 270.32 105.699ZM377.671 341.375C376.205 345.265 374.585 349.152 372.859 352.928L370.994 352.075C372.701 348.341 374.301 344.498 375.752 340.652L377.671 341.375ZM246.325 98.6204L245.879 100.623C241.873 99.732 237.779 98.9679 233.712 98.3515L234.02 96.3235C238.133 96.946 242.273 97.7193 246.325 98.6204ZM367.274 364.124C365.293 367.777 363.161 371.406 360.938 374.91L359.206 373.811C361.404 370.346 363.512 366.758 365.471 363.146L367.274 364.124ZM221.581 94.8747L221.414 96.9187C217.315 96.583 213.154 96.3859 209.045 96.3331L209.071 94.282C213.228 94.3351 217.436 94.5342 221.581 94.8747ZM353.882 385.236C351.423 388.581 348.817 391.883 346.136 395.05L344.571 393.724C347.221 390.593 349.799 387.328 352.23 384.02L353.882 385.236ZM196.547 94.5513L196.663 96.5997C192.556 96.8312 188.405 97.2085 184.324 97.722L184.068 95.6863C188.196 95.1663 192.395 94.7843 196.547 94.5513ZM337.737 404.304C334.84 407.284 331.802 410.199 328.708 412.97L327.34 411.441C330.399 408.702 333.402 405.82 336.267 402.874L337.737 404.304ZM171.713 97.679L172.109 99.6932C168.078 100.487 164.024 101.431 160.061 102.499L159.528 100.519C163.536 99.4381 167.636 98.4831 171.713 97.679ZM319.103 420.99C315.825 423.54 312.415 426.01 308.969 428.329L307.823 426.627C311.231 424.333 314.602 421.892 317.843 419.37L319.103 420.99ZM147.567 104.188L148.235 106.127C144.358 107.464 140.472 108.954 136.684 110.555L135.886 108.666C139.715 107.046 143.646 105.539 147.567 104.188ZM298.355 434.955C294.764 437.029 291.05 439.01 287.315 440.843L286.412 439C290.105 437.189 293.778 435.23 297.329 433.178L298.355 434.955ZM125.456 115.757C121.784 117.61 118.133 119.609 114.605 121.7L113.559 119.936C117.127 117.82 120.819 115.798 124.532 113.925L125.456 115.757ZM104.185 128.369C100.799 130.706 97.4555 133.185 94.2478 135.74L92.9703 134.135C96.2141 131.551 99.5953 129.043 103.02 126.68L104.185 128.369ZM84.8433 143.779C81.818 146.551 78.8505 149.464 76.0246 152.436L74.5381 151.022C77.3967 148.016 80.3976 145.07 83.4577 142.266L84.8433 143.779ZM67.8218 161.684C65.2026 164.851 62.6626 168.146 60.2718 171.477L58.605 170.281C61.0232 166.911 63.5924 163.579 66.2412 160.377L67.8218 161.684ZM53.4088 181.768C51.2456 185.266 49.1784 188.879 47.2643 192.505L45.4509 191.547C47.3858 187.88 49.4764 184.226 51.664 180.688L53.4088 181.768ZM41.8662 203.639C40.2007 207.394 38.6431 211.255 37.2366 215.116L35.3094 214.413C36.7318 210.508 38.3069 206.604 39.9906 202.806L41.8662 203.639ZM33.4001 226.883C32.2593 230.836 31.2404 234.874 30.3728 238.886L28.3681 238.453C29.2453 234.396 30.2752 230.311 31.4292 226.314L33.4001 226.883ZM28.1699 251.068C27.5781 255.142 27.1195 259.283 26.8077 263.376L24.762 263.221C25.0777 259.081 25.541 254.893 26.1402 250.773L28.1699 251.068ZM26.2934 275.751C26.2634 279.865 26.3773 284.031 26.6312 288.132L24.5839 288.259C24.3271 284.111 24.2121 279.897 24.2416 275.735L26.2934 275.751ZM27.823 300.463C28.3595 304.536 29.0453 308.642 29.8612 312.668L27.8508 313.077C27.0253 309.004 26.3317 304.851 25.7892 300.732L27.823 300.463ZM32.7365 324.704C33.8275 328.661 35.0704 332.634 36.4317 336.514L34.4953 337.193C33.1189 333.269 31.8619 329.251 30.7586 325.25L32.7365 324.704Z" fill="#E6E6E6"/>
<path d="M274.847 444.189L275.621 446.089C273.703 446.871 271.763 447.624 269.852 448.328L269.143 446.404C271.031 445.707 272.95 444.962 274.847 444.189Z" fill="#E6E6E6"/>
<path d="M371.273 358.308C371.068 357.974 366.241 349.911 364.567 333.168C363.032 317.808 364.019 291.917 377.443 255.801C402.876 187.382 371.582 132.177 371.263 131.627L372.807 130.731C372.888 130.871 380.962 144.946 385.733 167.358C392.035 197.072 389.74 227.967 379.116 256.423C353.728 324.726 372.603 357.06 372.796 357.379L371.273 358.308Z" fill="#3F3D56"/>
<path d="M361.329 127.61C367.734 127.61 372.927 122.416 372.927 116.009C372.927 109.602 367.734 104.408 361.329 104.408C354.923 104.408 349.73 109.602 349.73 116.009C349.73 122.416 354.923 127.61 361.329 127.61Z" fill="#E7D9B4"/>
<path d="M397.908 170.444C404.313 170.444 409.506 165.25 409.506 158.843C409.506 152.436 404.313 147.242 397.908 147.242C391.502 147.242 386.309 152.436 386.309 158.843C386.309 165.25 391.502 170.444 397.908 170.444Z" fill="#3F3D56"/>
<path d="M372.927 199C379.332 199 384.525 193.806 384.525 187.399C384.525 180.992 379.332 175.798 372.927 175.798C366.521 175.798 361.329 180.992 361.329 187.399C361.329 193.806 366.521 199 372.927 199Z" fill="#E7D9B4"/>
<path d="M403.261 223.094C409.666 223.094 414.859 217.9 414.859 211.493C414.859 205.086 409.666 199.892 403.261 199.892C396.855 199.892 391.662 205.086 391.662 211.493C391.662 217.9 396.855 223.094 403.261 223.094Z" fill="#E7D9B4"/>
<path d="M364.005 260.574C370.411 260.574 375.603 255.38 375.603 248.973C375.603 242.566 370.411 237.372 364.005 237.372C357.6 237.372 352.407 242.566 352.407 248.973C352.407 255.38 357.6 260.574 364.005 260.574Z" fill="#3F3D56"/>
<path d="M378.28 358.735C378.28 358.735 366.682 330.179 401.476 308.762L378.28 358.735Z" fill="#3F3D56"/>
<path d="M364.016 358.218C364.016 358.218 358.737 327.851 317.883 328.111L364.016 358.218Z" fill="#3F3D56"/>
<path d="M287.449 145.326C287.031 145.226 286.592 145.281 286.212 145.481C285.833 145.681 285.538 146.011 285.384 146.412C285.23 146.812 285.226 147.255 285.374 147.658C285.522 148.061 285.811 148.396 286.187 148.602C292.241 151.982 297.566 156.527 301.856 161.974C321.859 187.369 314.875 226.238 286.257 248.789C273.549 258.98 257.705 264.455 241.417 264.284C260.633 269.7 283.314 265.438 301.592 251.036C330.21 228.485 337.194 189.616 317.192 164.221C309.678 154.762 299.202 148.107 287.449 145.326Z" fill="#3F3D56"/>
<path d="M301.856 162.359C321.859 187.754 314.875 226.622 286.257 249.173C275.771 257.53 263.148 262.769 249.827 264.294C265.735 264.199 281.146 258.736 293.562 248.789C322.18 226.238 329.164 187.369 309.162 161.974C303.488 154.789 296.049 149.197 287.571 145.744L287.44 145.712C287.023 145.614 286.585 145.671 286.207 145.872C285.829 146.073 285.537 146.404 285.384 146.804C285.232 147.204 285.229 147.646 285.377 148.048C285.526 148.449 285.814 148.784 286.19 148.988C292.243 152.368 297.567 156.912 301.856 162.359Z" fill="#E7D9B4"/>
<path d="M213.145 123.148L224.952 143.603L236.759 164.058H213.145H189.531L201.338 143.603L213.145 123.148Z" fill="#E7D9B4"/>
<path d="M256.21 123.148L268.018 143.603L279.824 164.058H256.21H232.596L244.403 143.603L256.21 123.148Z" fill="#E7D9B4"/>
<path d="M211.78 133.817L219.064 146.438L226.349 159.058H211.78H197.21L204.494 146.438L211.78 133.817Z" fill="#3F3D56"/>
<path d="M256.037 133.817L263.322 146.438L270.607 159.058H256.037H241.468L248.753 146.438L256.037 133.817Z" fill="#3F3D56"/>
<path d="M317.732 268.67C317.733 287.577 311.285 305.92 299.454 320.667C287.624 335.413 271.118 345.683 252.663 349.778C234.209 353.873 214.91 351.549 197.954 343.19C180.999 334.83 167.401 320.936 159.408 303.802C151.414 286.668 149.503 267.319 153.991 248.952C158.478 230.585 169.095 214.298 184.088 202.782C199.08 191.266 217.552 185.211 236.451 185.615C255.35 186.019 273.546 192.86 288.032 205.007C297.332 212.804 304.81 222.545 309.941 233.543C315.072 244.542 317.731 256.532 317.732 268.67Z" fill="#3F3D56"/>
<path opacity="0.1" d="M288.032 205.006C281.084 223.156 259.824 236.363 234.677 236.363C209.53 236.363 188.271 223.156 181.323 205.006C196.276 192.468 215.165 185.596 234.677 185.596C254.19 185.596 273.079 192.468 288.032 205.006Z" fill="black"/>
<path d="M234.677 229.825C265.47 229.825 290.432 210.023 290.432 185.596C290.432 161.169 265.47 141.367 234.677 141.367C203.885 141.367 178.923 161.169 178.923 185.596C178.923 210.023 203.885 229.825 234.677 229.825Z" fill="#3F3D56"/>
<path d="M208.531 189.827C214.264 189.827 218.913 185.177 218.913 179.442C218.913 173.707 214.264 169.058 208.531 169.058C202.797 169.058 198.149 173.707 198.149 179.442C198.149 185.177 202.797 189.827 208.531 189.827Z" fill="white"/>
<path d="M260.824 189.827C266.558 189.827 271.206 185.177 271.206 179.442C271.206 173.707 266.558 169.058 260.824 169.058C255.09 169.058 250.442 173.707 250.442 179.442C250.442 185.177 255.09 189.827 260.824 189.827Z" fill="white"/>
<path d="M208.531 185.98C212.141 185.98 215.067 183.053 215.067 179.442C215.067 175.831 212.141 172.904 208.531 172.904C204.921 172.904 201.994 175.831 201.994 179.442C201.994 183.053 204.921 185.98 208.531 185.98Z" fill="#3F3D56"/>
<path d="M260.824 185.98C264.434 185.98 267.361 183.053 267.361 179.442C267.361 175.831 264.434 172.904 260.824 172.904C257.214 172.904 254.287 175.831 254.287 179.442C254.287 183.053 257.214 185.98 260.824 185.98Z" fill="#3F3D56"/>
<path d="M223.017 195.977C224.079 195.977 224.94 195.116 224.94 194.054C224.94 192.992 224.079 192.131 223.017 192.131C221.956 192.131 221.095 192.992 221.095 194.054C221.095 195.116 221.956 195.977 223.017 195.977Z" fill="#E7D9B4"/>
<path d="M222.279 193.566C218.507 195.278 216.01 198.765 212.048 200.264C208.011 201.785 203.573 201.867 199.482 200.497C198.775 200.263 198.472 201.377 199.175 201.61C203.272 202.975 207.703 202.964 211.793 201.579C213.727 200.92 215.543 199.955 217.172 198.72C219.06 197.286 220.67 195.557 222.861 194.562C223.536 194.255 222.95 193.261 222.279 193.566Z" fill="#E7D9B4"/>
<path d="M223.781 193.075C221.854 193.519 219.995 194.222 218.256 195.165C216.254 196.132 214.097 196.738 211.885 196.958C207.687 197.322 203.489 196.259 199.97 193.941C199.346 193.534 198.768 194.532 199.388 194.937C202.911 197.25 207.081 198.377 211.29 198.154C213.332 198.048 215.344 197.612 217.247 196.862C219.54 195.947 221.622 194.613 224.088 194.188C224.818 194.062 224.508 192.95 223.781 193.075Z" fill="#E7D9B4"/>
<path d="M222.751 192.328C219.815 195.099 218.595 199.103 215.48 201.785C212.128 204.67 207.862 206.273 203.44 206.31C203.29 206.315 203.149 206.378 203.045 206.486C202.941 206.594 202.882 206.738 202.882 206.887C202.882 207.037 202.941 207.181 203.045 207.288C203.149 207.396 203.29 207.459 203.44 207.464C207.721 207.433 211.876 206.015 215.284 203.423C216.824 202.255 218.176 200.859 219.296 199.284C220.748 197.228 221.709 194.897 223.567 193.144C224.108 192.633 223.291 191.818 222.751 192.328Z" fill="#E7D9B4"/>
<path d="M243.261 195.977C244.323 195.977 245.184 195.116 245.184 194.054C245.184 192.992 244.323 192.131 243.261 192.131C242.2 192.131 241.339 192.992 241.339 194.054C241.339 195.116 242.2 195.977 243.261 195.977Z" fill="#E7D9B4"/>
<path d="M243.418 194.562C245.585 195.546 247.187 197.247 249.049 198.675C250.693 199.93 252.529 200.911 254.486 201.579C258.576 202.967 263.007 202.978 267.104 201.61C267.805 201.377 267.505 200.263 266.797 200.497C262.706 201.868 258.268 201.785 254.231 200.264C250.268 198.763 247.772 195.279 244 193.566C243.329 193.261 242.742 194.255 243.418 194.562Z" fill="#E7D9B4"/>
<path d="M242.191 194.188C244.561 194.596 246.563 195.846 248.755 196.751C250.739 197.566 252.847 198.04 254.989 198.154C259.198 198.377 263.368 197.25 266.891 194.937C267.51 194.533 266.933 193.533 266.309 193.941C262.792 196.264 258.592 197.327 254.394 196.958C252.182 196.733 250.027 196.126 248.023 195.165C246.283 194.224 244.425 193.521 242.498 193.075C241.771 192.95 241.46 194.062 242.191 194.188Z" fill="#E7D9B4"/>
<path d="M242.712 193.144C244.568 194.895 245.53 197.232 246.983 199.284C248.103 200.858 249.456 202.254 250.995 203.423C254.402 206.015 258.558 207.433 262.839 207.464C262.988 207.459 263.13 207.396 263.234 207.288C263.338 207.181 263.396 207.037 263.396 206.887C263.396 206.738 263.338 206.594 263.234 206.486C263.13 206.378 262.988 206.315 262.839 206.31C258.416 206.278 254.148 204.674 250.799 201.785C247.697 199.092 246.463 195.098 243.528 192.328C242.988 191.818 242.171 192.633 242.712 193.144Z" fill="#E7D9B4"/>
<path d="M208.531 357.512C217.025 357.512 223.911 353.552 223.911 348.666C223.911 343.781 217.025 339.821 208.531 339.821C200.036 339.821 193.15 343.781 193.15 348.666C193.15 353.552 200.036 357.512 208.531 357.512Z" fill="#3F3D56"/>
<path d="M260.824 357.512C269.319 357.512 276.205 353.552 276.205 348.666C276.205 343.781 269.319 339.821 260.824 339.821C252.33 339.821 245.444 343.781 245.444 348.666C245.444 353.552 252.33 357.512 260.824 357.512Z" fill="#3F3D56"/>
<path d="M233.139 200.98C240.147 200.98 245.828 197.708 245.828 193.672C245.828 189.637 240.147 186.365 233.139 186.365C226.132 186.365 220.451 189.637 220.451 193.672C220.451 197.708 226.132 200.98 233.139 200.98Z" fill="#E7D9B4"/>
<path d="M0 0V496.161H664.666V0H0ZM85.6483 6.24664C87.7657 6.24664 89.8356 6.87468 91.5962 8.05134C93.3568 9.22801 94.729 10.9005 95.5393 12.8572C96.3497 14.8139 96.5617 16.967 96.1486 19.0443C95.7355 21.1215 94.7158 23.0296 93.2186 24.5272C91.7213 26.0248 89.8137 27.0447 87.7369 27.4579C85.6601 27.8711 83.5075 27.659 81.5512 26.8485C79.595 26.038 77.9229 24.6655 76.7465 22.9045C75.5701 21.1435 74.9422 19.0731 74.9422 16.9552C74.9422 14.1151 76.0702 11.3913 78.0779 9.38309C80.0857 7.37485 82.8088 6.24664 85.6483 6.24664ZM21.4121 27.6637C19.2946 27.6637 17.2247 27.0356 15.4641 25.859C13.7035 24.6823 12.3313 23.0098 11.521 21.0531C10.7107 19.0964 10.4987 16.9433 10.9117 14.866C11.3248 12.7888 12.3445 10.8807 13.8418 9.38309C15.339 7.88547 17.2467 6.86559 19.3234 6.4524C21.4002 6.03921 23.5528 6.25127 25.5091 7.06177C27.4654 7.87228 29.1374 9.24482 30.3138 11.0058C31.4902 12.7668 32.1181 14.8372 32.1181 16.9552C32.1181 19.7952 30.9901 22.519 28.9824 24.5272C26.9746 26.5355 24.2515 27.6637 21.4121 27.6637ZM42.8241 16.9552C42.8241 14.8372 43.452 12.7668 44.6284 11.0058C45.8048 9.24482 47.4769 7.87228 49.4332 7.06177C51.3894 6.25127 53.542 6.03921 55.6188 6.4524C57.6956 6.86559 59.6032 7.88547 61.1005 9.38309C62.5977 10.8807 63.6174 12.7888 64.0305 14.866C64.4436 16.9433 64.2316 19.0964 63.4212 21.0531C62.6109 23.0098 61.2387 24.6823 59.4781 25.859C57.7175 27.0356 55.6476 27.6637 53.5302 27.6637C50.6908 27.6637 47.9676 26.5355 45.9598 24.5272C43.9521 22.519 42.8241 19.7952 42.8241 16.9552ZM411.29 356.951H53.5302V91.0224H411.29V356.951Z" fill="#F2F2F2"/>
<path d="M650.391 8.92383H628.979V11.601H650.391V8.92383Z" fill="white"/>
<path d="M650.391 16.9551H628.979V19.6322H650.391V16.9551Z" fill="white"/>
<path d="M650.391 24.9866H628.979V27.6637H650.391V24.9866Z" fill="white"/>
<path d="M628.979 86.5605H467.497V94.5919H628.979V86.5605Z" fill="white"/>
<path d="M628.979 114.224H467.497V122.256H628.979V114.224Z" fill="white"/>
<path d="M628.979 141.888H467.497V149.919H628.979V141.888Z" fill="white"/>
<path d="M628.979 169.552H467.497V177.583H628.979V169.552Z" fill="white"/>
<path d="M628.979 197.215H467.497V205.247H628.979V197.215Z" fill="white"/>
<path d="M628.979 224.879H467.497V232.91H628.979V224.879Z" fill="white"/>
<path d="M628.979 252.542H467.497V260.574H628.979V252.542Z" fill="white"/>
<path d="M628.979 280.206H467.497V288.238H628.979V280.206Z" fill="white"/>
<path d="M628.979 307.87H467.497V315.901H628.979V307.87Z" fill="white"/>
<path d="M628.979 335.534H467.497V343.565H628.979V335.534Z" fill="white"/>
<path d="M74.9422 386.399C80.855 386.399 85.6483 381.605 85.6483 375.69C85.6483 369.776 80.855 364.982 74.9422 364.982C69.0295 364.982 64.2362 369.776 64.2362 375.69C64.2362 381.605 69.0295 386.399 74.9422 386.399Z" fill="white"/>
<path d="M111.521 386.399C117.434 386.399 122.227 381.605 122.227 375.69C122.227 369.776 117.434 364.982 111.521 364.982C105.608 364.982 100.815 369.776 100.815 375.69C100.815 381.605 105.608 386.399 111.521 386.399Z" fill="white"/>
<path d="M148.1 386.399C154.013 386.399 158.806 381.605 158.806 375.69C158.806 369.776 154.013 364.982 148.1 364.982C142.187 364.982 137.394 369.776 137.394 375.69C137.394 381.605 142.187 386.399 148.1 386.399Z" fill="white"/>
<path d="M628.979 428.341H467.497V473.852H628.979V428.341Z" fill="#E7D9B4"/>
<path d="M547.756 392.152L549.562 455.378L568.826 529.442C568.826 529.442 564.612 542.087 567.622 545.098C570.632 548.109 584.479 553.528 584.479 553.528L573.04 395.765L547.756 392.152Z" fill="#2F2E41"/>
<path d="M589.581 544.79C589.581 544.79 596.451 559.907 586.833 561.281C577.215 562.656 532.789 566.321 535.537 558.533C538.285 550.745 571.719 543.415 571.719 543.415L589.581 544.79Z" fill="#2F2E41"/>
<path d="M615.181 336.152C615.181 336.152 607.957 375.292 603.141 381.915C598.325 388.539 605.549 436.711 605.549 436.711C605.549 436.711 616.385 505.959 611.569 516.797C606.753 527.636 607.957 524.023 608.559 530.045C609.161 536.066 610.365 540.883 608.559 546.303C606.753 551.722 606.753 551.12 606.151 554.131C605.549 557.141 606.151 573.399 606.151 573.399C606.151 573.399 580.265 582.432 576.051 569.184C576.051 569.184 582.071 560.754 580.265 554.131C578.381 547.465 577.37 540.583 577.255 533.657V521.012L549.562 417.442L542.94 380.109C542.94 380.109 544.746 342.173 551.368 338.56C557.99 334.947 615.181 336.152 615.181 336.152Z" fill="#2F2E41"/>
<path d="M604.345 570.389C604.345 570.389 613.375 590.26 600.733 592.066C588.091 593.872 529.696 598.69 533.308 588.453C536.92 578.216 580.867 568.582 580.867 568.582L604.345 570.389Z" fill="#2F2E41"/>
<path d="M592.901 162.757C606.2 162.757 616.981 151.973 616.981 138.671C616.981 125.368 606.2 114.585 592.901 114.585C579.601 114.585 568.82 125.368 568.82 138.671C568.82 151.973 579.601 162.757 592.901 162.757Z" fill="#FFB9B9"/>
<path d="M609.822 149.314L609.374 180.074L579.851 180.174C579.851 180.174 587.343 156.095 583.987 151.06C580.631 146.024 609.822 149.314 609.822 149.314Z" fill="#FFB9B9"/>
<path d="M565.816 197.055C565.816 197.055 586.887 169.958 603.141 181.399C619.395 192.84 625.415 219.936 625.415 219.936L621.803 295.807C621.803 295.807 612.773 306.646 618.191 313.872C623.609 321.098 626.619 319.291 622.405 324.711C618.191 330.13 613.375 334.345 615.181 336.152C616.987 337.958 613.375 339.162 613.375 339.162L549.562 340.969C549.562 340.969 551.368 338.56 545.95 331.334C540.532 324.109 547.154 314.474 545.95 310.861C544.746 307.248 543.542 311.463 542.94 303.033C542.338 294.603 565.816 197.055 565.816 197.055Z" fill="#3F3D56"/>
<path d="M571.836 352.41C571.836 352.41 570.632 367.463 561.602 369.872C558.216 370.775 555.676 369.054 553.824 366.548C552.095 364.148 551.126 361.283 551.041 358.326C550.957 355.368 551.762 352.453 553.352 349.958L555.582 346.388L571.836 352.41Z" fill="#FFB9B9"/>
<path d="M627.523 166.646C627.523 166.646 628.125 178.689 627.523 180.495C626.92 182.302 626.318 184.108 627.523 185.915C628.727 187.721 628.124 193.743 626.92 194.345C625.716 194.947 629.329 200.366 628.124 203.979C626.92 207.592 625.716 208.797 625.114 210.001C624.512 211.205 623.543 213.363 623.543 213.363C623.543 213.363 605.85 175.678 591.402 184.71C576.954 193.743 565.515 196.754 565.515 196.754C565.515 196.754 573.341 154.603 627.523 166.646Z" fill="#3F3D56"/>
<path d="M601.335 194.646C601.335 194.646 620.599 196.452 619.395 221.743C618.191 247.033 621.201 286.775 621.201 286.775C621.201 286.775 588.091 337.356 582.673 340.969C577.254 344.582 576.652 343.979 577.254 346.99C577.856 350.001 578.458 352.41 576.05 354.818C574.629 356.25 573.006 357.467 571.234 358.431C571.234 358.431 551.97 351.807 553.776 345.786C555.582 339.764 564.01 330.13 564.01 330.13C564.01 330.13 578.459 306.646 579.061 303.033C579.663 299.42 579.663 300.022 581.469 298.216C583.275 296.409 588.091 289.184 588.091 285.571V274.13L583.044 212.99C582.815 210.499 583.115 207.989 583.925 205.623C584.735 203.257 586.036 201.09 587.743 199.263C590.608 196.265 594.939 193.878 601.335 194.646Z" fill="#3F3D56"/>
<path d="M577.371 120.096C575.802 120.531 574.149 120.568 572.562 120.205C570.974 119.841 569.502 119.088 568.279 118.014C565.925 115.777 565.134 111.902 566.809 109.121C568.255 106.718 571.067 105.544 573.743 104.709C579.645 102.868 585.792 101.931 591.975 101.927C594.923 101.926 598.001 102.177 600.523 103.703C601.771 104.458 602.828 105.494 604.062 106.272C606.331 107.702 609.055 108.177 611.546 109.171C614.094 110.206 616.389 111.777 618.276 113.777C620.164 115.776 621.6 118.158 622.488 120.761C623.06 122.526 623.417 124.354 623.552 126.205C623.959 131.274 623.063 136.364 620.95 140.99C617.591 148.316 611.197 154.476 610.294 162.485C606.852 159.595 605.844 154.748 603.178 151.13C601.194 148.454 598.361 146.531 595.142 145.674C594.243 145.555 593.397 145.177 592.709 144.586C592.246 143.946 591.981 143.183 591.947 142.393L590.295 130.494C589.959 128.072 589.505 125.426 587.647 123.837C586.481 122.969 585.131 122.383 583.702 122.124C580.321 121.284 576.877 120.722 573.404 120.445" fill="#2F2E41"/>
<path opacity="0.1" d="M618.273 295.377L584.479 339.243C584.479 339.243 615.597 313.224 618.273 295.377Z" fill="black"/>
<path opacity="0.1" d="M585.835 246.809L586.155 288.238L566.528 317.686L582.587 284.668L585.835 246.809Z" fill="black"/>
</g>
<defs>
<filter id="filter0_i_107_278" x="0" y="0" width="695" height="601" filterUnits="userSpaceOnUse" color-interpolation-filters="sRGB">
<feFlood flood-opacity="0" result="BackgroundImageFix"/>
<feBlend mode="normal" in="SourceGraphic" in2="BackgroundImageFix" result="shape"/>
<feColorMatrix in="SourceAlpha" type="matrix" values="0 0 0 0 0 0 0 0 0 0 0 0 0 0 0 0 0 0 127 0" result="hardAlpha"/>
<feOffset dy="4"/>
<feGaussianBlur stdDeviation="2"/>
<feComposite in2="hardAlpha" operator="arithmetic" k2="-1" k3="1"/>
<feColorMatrix type="matrix" values="0 0 0 0 0 0 0 0 0 0 0 0 0 0 0 0 0 0 0.25 0"/>
<feBlend mode="normal" in2="shape" result="effect1_innerShadow_107_278"/>
</filter>
<clipPath id="clip0_107_278">
<rect width="695" height="597" fill="white"/>
</clipPath>
</defs>
</svg>
